<?xml version="1.0" encoding="UTF-8"?>
<svg id="_лой_1" data-name="Слой 1" xmlns="http://www.w3.org/2000/svg" viewBox="0 0 376.44 170.63">
  <defs>
    <style>
      .cls-1, .cls-2 {
        fill: #fff;
      }

      .cls-2 {
        fill-rule: evenodd;
      }
    </style>
  </defs>
  <path class="cls-2" d="M376.44,102.98v59.65c0,4.42-3.58,8-8,8h-97.1c.96-.75,1.48-1.24,1.48-1.24,0,0,.14-.14,.47-.43,.06-.05,.13-.11,.21-.18,.04-.03,.08-.07,.13-.1,.03-.03,.06-.06,.1-.09,.12-.1,.26-.22,.42-.35,.05-.04,.11-.08,.17-.13,.04-.04,.08-.07,.13-.11,.21-.17,.45-.36,.72-.57l.09-.06,.18-.15c.05-.03,.1-.07,.15-.11,.29-.22,.61-.46,.96-.72,.05-.04,.11-.08,.17-.13,.08-.06,.17-.12,.26-.19,.31-.22,.64-.47,1-.72,.18-.13,.36-.26,.55-.4,1.5-1.05,3.34-2.31,5.61-3.78,.72-.47,1.48-.96,2.29-1.47,10.66-6.77,21.83-10.39,24.89-8.38,8.52,5.59,10.82,4.89,14.01,2.17,5.23-4.47,6.46-13.88,9.6-17.1,6.47-6.63,13.18-8.18,18.2-14.17,.24-.29,.46-.58,.65-.85,.1-.14,.19-.27,.27-.41h.01s.05-.1,.07-.14c.05-.06,.08-.13,.11-.19,.1-.16,.18-.32,.26-.48,.08-.16,.15-.32,.21-.47,.02-.03,.03-.06,.04-.09,.02-.06,.05-.12,.06-.18,.05-.13,.1-.25,.13-.37,.05-.13,.08-.26,.11-.39,.03-.1,.06-.21,.07-.31,.04-.12,.06-.24,.07-.36,.04-.23,.07-.45,.08-.66,0-.03,0-.07,.01-.11v-.08c.05-.57,.04-1.12,.02-1.64-.01-.95-.03-1.84,.26-2.7,.02-.06,.04-.11,.06-.16,.02-.06,.04-.12,.06-.17,.05-.1,.09-.21,.13-.31,1.99-4.63,2.95-9.2,.43-10.51-.05-.04-.1-.07-.15-.09-.01-.01-.03-.01-.04-.02-1.14-.43-1.85-.2-2.78,1.06-.01,0-.02-.01-.03-.01-.1,.15-.21,.3-.31,.46-.8,1.14-1.45,2.18-1.94,3.39-.01,.02-.01,.03-.02,.05-4.27,7.2-8.74,8.36-15.89,10.54-.92,.28-1.91,.58-2.99,.93-1.45,.47-3.11,1.07-4.89,1.74-.46,.17-.93,.35-1.41,.54-3.2,1.22-6.69,2.66-10,4.06-.76,.33-1.51,.65-2.25,.97-.37,.15-.73,.31-1.09,.47-1.09,.47-2.13,.93-3.11,1.36-.98,.44-1.91,.86-2.75,1.24-.57,.26-1.1,.5-1.58,.73-1.23,.57-2.21,1.03-2.83,1.35-.06,.03-.12,.06-.17,.09-.06,.03-.11,.05-.16,.08-.05,.03-.1,.05-.16,.08-.17,.08-.42,.19-.73,.31-.35,.15-.8,.32-1.32,.51-.22,.08-.46,.17-.71,.26-.2,.08-.42,.16-.64,.24-.41,.15-.84,.3-1.31,.47-.37,.13-.76,.27-1.17,.42-1.53,.54-3.27,1.15-5.18,1.8-.38,.13-.76,.27-1.16,.4-1.06,.37-2.16,.75-3.3,1.14-.32,.11-.65,.22-.98,.33-.65,.22-1.31,.44-1.98,.67-.01,0-.01,.01-.02,.01s-.02,0-.03,.01c-.69,.23-1.39,.47-2.1,.71-.62,.21-1.25,.42-1.88,.64-.04,.01-.08,.02-.12,.04-.04,.01-.07,.02-.11,.03-.31,.1-.61,.21-.91,.31-.3,.1-.6,.21-.91,.31-.11,.04-.23,.07-.34,.11-1.26,.43-2.53,.85-3.78,1.27-.54,.18-1.07,.36-1.6,.54l-1.53,.51c-.19,.06-.37,.12-.56,.19-.49,.16-.97,.32-1.45,.48-.11,.04-.22,.07-.32,.11-.11,.03-.21,.07-.32,.1-.8,.27-1.6,.54-2.38,.8-.42,.14-.85,.28-1.27,.43-.41,.13-.82,.27-1.22,.4-.45,.15-.89,.3-1.33,.44-.09,.03-.18,.06-.26,.09-1.08,.36-2.11,.7-3.08,1.02l-.36,.12c-.54,.18-1.07,.35-1.57,.52-.5,.16-.98,.32-1.44,.48-.23,.07-.45,.15-.67,.22-.22,.07-.43,.14-.64,.21,0,.01-.02,.01-.03,.01-.13,.04-.25,.09-.37,.13-.13,.04-.25,.08-.36,.12-.53,.17-1.02,.33-1.45,.47-1.04,.35-2.06,.67-3.07,.97-2.64,.79-5.17,1.45-7.59,2.02-1.69,.39-3.33,.75-4.92,1.08-2.27,.46-4.43,.88-6.47,1.28-.91,.18-1.79,.36-2.65,.54-.93,.19-1.83,.39-2.7,.6-.23,.05-.45,.11-.67,.16-.3,.07-.6,.15-.9,.23h-.01c-6.43,1.68-11.17,4.08-14.03,9.63-.86,1.67-1.18,3.74-1.1,6.08h-5.9c-4.41,0-8-3.58-8-8v-59.65c0-4.42,3.59-8,8-8h167.65c4.42,0,8,3.58,8,8Z"/>
  <path class="cls-2" d="M355.31,114.23c-.02,.41-.02,.83-.01,1.26,0-.44,0-.85,.01-1.26Z"/>
  <path class="cls-2" d="M355.32,114.06c0,.05,0,.11,0,.16,0-.05,0-.11,0-.16Z"/>
  <path class="cls-2" d="M355.56,112.79c-.14,.42-.21,.84-.24,1.27,0-.11,0-.22,.02-.32,.04-.32,.11-.64,.22-.95Z"/>
  <g>
    <path class="cls-1" d="M64.96,31.6c-1.88-2.09-5.09-3.13-9.63-3.13H22.65c-1.92,0-3.19-.35-3.82-1.05s-.94-2.13-.94-4.27V13.29c0-2.14,.31-3.57,.94-4.29,.63-.72,1.9-1.08,3.82-1.08H57.04c3.33,0,6.54,.39,9.64,1.16l-1.49-9.08H13.68C5.08,0,.77,4.8,.77,14.4V30.96c0,5.06,.93,8.63,2.77,10.72,1.85,2.08,5.04,3.13,9.59,3.13H46.02c1.78,0,2.97,.29,3.6,.88,.7,.78,1.06,2.26,1.06,4.43v12.13c0,2.29-.33,3.78-.97,4.46-.65,.68-1.88,1.03-3.69,1.03H9.64c-3.03,0-6.24-.39-9.64-1.17l1.44,9.09H54.88c8.61,0,12.91-4.77,12.91-14.29v-19.06c0-5.05-.94-8.63-2.83-10.71Z"/>
    <path class="cls-1" d="M158.21,20.33c.15,.88,.22,1.36,.22,1.44,0,1.03-.22,2.32-.66,3.87l-11.35,38.22-12.24-43.53h-19.78l-13.01,43.2-10.69-37.89c-.44-1.62-.66-2.77-.66-3.43,0-.37,.11-1,.33-1.88h-19.16c1.66,2.21,2.78,4.39,3.37,6.53l13.85,48.8h16.67l14.68-47.41,13.79,47.41h16.83l14.96-49.46c.66-2.22,1.71-4.17,3.15-5.87h-10.3Z"/>
    <path class="cls-1" d="M240.07,51.84v-17.22c0-9.53-4.32-14.29-12.96-14.29h-41.7c-8.64,0-12.96,4.76-12.96,14.29v26.75c0,9.52,4.32,14.29,12.96,14.29h52.5l1.5-8.42c-3.59,.7-6.82,1.05-9.7,1.05h-35.33c-2.36,0-3.96-.47-4.79-1.41s-1.25-2.74-1.25-5.4v-9.64h51.73Zm-51.73-17.33c0-2.66,.42-4.46,1.25-5.4,.83-.95,2.43-1.42,4.79-1.42h23.81c2.33,0,3.91,.47,4.74,1.42,.83,.94,1.24,2.74,1.24,5.4v9.96h-35.83v-9.96Z"/>
    <path class="cls-1" d="M316.15,51.84v-17.22c0-9.53-4.32-14.29-12.96-14.29h-41.7c-8.64,0-12.96,4.76-12.96,14.29v26.75c0,9.52,4.32,14.29,12.96,14.29h52.5l1.5-8.42c-3.58,.7-6.81,1.05-9.69,1.05h-35.34c-2.36,0-3.96-.47-4.79-1.41s-1.25-2.74-1.25-5.4v-9.64h51.73Zm-51.73-17.33c0-2.66,.42-4.46,1.25-5.4,.83-.95,2.43-1.42,4.79-1.42h23.82c2.32,0,3.9,.47,4.73,1.42,.83,.94,1.25,2.74,1.25,5.4v9.96h-35.84v-9.96Z"/>
    <path class="cls-1" d="M366.8,68.29h-13.29c-2.32,0-3.9-.48-4.73-1.44s-1.25-2.75-1.25-5.37V27.69h26.53v-7.36h-26.53V6.7l-15.89,1.94v11.69h-10.2v7.36h10.2V61.37c0,9.52,4.3,14.29,12.9,14.29h30.52l1.38-8.42c-3.58,.7-6.79,1.05-9.64,1.05Z"/>
  </g>
  <g>
    <path class="cls-1" d="M71.78,132.53c0-2.14,.68-4.74,2.05-7.81H24.15v9.03c3.17-.74,6.39-1.11,9.63-1.11h20.88v23.93c0,2.32-.37,3.93-1.13,4.81-.76,.89-2.17,1.33-4.24,1.33H22.43c-2.03,0-3.42-.44-4.18-1.33-.76-.88-1.14-2.49-1.14-4.81v-47.63c0-2.33,.38-3.92,1.14-4.77,.76-.84,2.15-1.27,4.18-1.27H60.42c3.33,0,6.5,.39,9.53,1.16l-1.33-9.08H12.91c-8.61,0-12.91,4.8-12.91,14.4v46.96c0,9.53,4.3,14.29,12.91,14.29H50.01c2.55,0,4.65-1.33,6.32-3.98l1.82,3.98h15.34c-1.14-2.1-1.71-4.7-1.71-7.8v-30.3Z"/>
    <path class="cls-1" d="M81.92,170.63h18.95c-1-1.95-1.5-4.56-1.5-7.8v-47.52h-17.11c.85,1.84,1.27,4.45,1.27,7.81v39.71c0,3.17-.54,5.77-1.61,7.8Zm1.61-72.83v9.53h15.84v-9.53h-15.84Z"/>
    <path class="cls-1" d="M155.25,125.83l-.94-10.52h-22.32c-.99,0-1.9,.14-2.71,.44-1.29,.44-2.4,1.46-3.32,3.04l-.78-3.48h-16.23c.93,1.88,1.39,4.48,1.39,7.81v39.71c0,3.02-.58,5.63-1.72,7.8h19.27c-1.14-2.1-1.71-4.7-1.71-7.8v-31.91c0-2.32,.44-3.92,1.33-4.79,.88-.86,2.49-1.3,4.81-1.3h13.3c2.77,0,5.29,.22,7.58,.67-.48,0,.21,.11,2.05,.33Z"/>
    <path class="cls-1" d="M160.43,170.63h18.95c-1-1.95-1.5-4.56-1.5-7.8V94.98h-17.11c.85,1.96,1.27,4.56,1.27,7.81v60.04c0,3.17-.54,5.77-1.61,7.8Z"/>
  </g>
</svg>