<?xml version="1.0" encoding="UTF-8"?>
<svg id="_лой_1" data-name="Слой 1" xmlns="http://www.w3.org/2000/svg" viewBox="0 0 75.65 183.64">
  <defs>
    <style>
      .cls-1 {
        fill: #1d1d1b;
        fill-rule: evenodd;
      }
    </style>
  </defs>
  <path class="cls-1" d="M75.65,8V175.64c0,4.42-3.58,8-8,8H8c-4.42,0-8-3.58-8-8V82.41c.75,.96,1.24,1.48,1.24,1.48,0,0,.01,0,.04,.05,.02,.01,.04,.03,.06,.06,.07,.07,.18,.19,.33,.36,.04,.05,.09,.1,.13,.16,.1,.11,.2,.24,.32,.38l.05,.05c.48,.59,1.17,1.45,2.07,2.67,.04,.05,.08,.11,.13,.17,.06,.08,.12,.17,.19,.26,.22,.31,.47,.64,.72,1,.13,.18,.26,.36,.4,.55,.71,1.02,1.53,2.2,2.44,3.57,.28,.42,.57,.86,.88,1.33,.6,.92,1.25,1.92,1.93,3,6.77,10.66,10.39,21.83,8.38,24.89-5.59,8.52-4.89,10.82-2.17,14.01,4.47,5.23,13.88,6.47,17.1,9.61,6.63,6.46,8.18,13.17,14.17,18.19,.11,.09,.22,.18,.32,.26,.04,.03,.08,.06,.11,.09,.07,.05,.14,.11,.21,.15,.11,.08,.21,.16,.31,.22,.11,.08,.22,.14,.32,.21,.22,.14,.43,.26,.64,.36,.11,.06,.21,.11,.32,.16,.31,.14,.61,.26,.91,.35,.2,.07,.39,.12,.58,.16,2.36,.56,4.25-.19,6.03,.59,.11,.05,.21,.09,.32,.13,4.64,2,9.2,2.95,10.51,.43,.04-.05,.07-.1,.09-.15,.01-.01,.01-.03,.02-.04,.43-1.14,.2-1.85-1.06-2.78t.01-.02c-.15-.11-.31-.22-.46-.32-1.15-.8-2.2-1.46-3.42-1.95-.01,0-.01-.01-.02-.01-7.36-4.36-8.41-8.94-10.68-16.36-.02-.03-.02-.06-.03-.09-.09-.3-.19-.62-.29-.94-.15-.47-.3-.97-.47-1.48-1.42-4.37-3.92-10.6-6.34-16.31-.33-.76-.65-1.51-.97-2.25-.16-.37-.31-.73-.47-1.09-.47-1.08-.93-2.13-1.36-3.11-.22-.49-.43-.97-.64-1.43-.21-.46-.41-.9-.6-1.32-.13-.29-.25-.56-.38-.82-.01-.03-.03-.07-.04-.1-.28-.62-.54-1.19-.79-1.69-.03-.05-.05-.11-.07-.16-.17-.37-.33-.69-.47-.98-.03-.04-.04-.08-.06-.12-.11-.23-.21-.44-.3-.61-.05-.09-.1-.18-.14-.26-.03-.04-.05-.1-.08-.15-.08-.18-.19-.43-.31-.74-.15-.35-.32-.8-.51-1.32-.3-.81-.66-1.8-1.07-2.94-.17-.48-.35-.98-.53-1.5-.11-.31-.22-.62-.33-.94-.37-1.05-.76-2.19-1.18-3.38-.03-.08-.06-.16-.09-.25-.17-.52-.36-1.05-.54-1.59-.11-.31-.22-.63-.33-.95-.39-1.16-.8-2.35-1.22-3.58-.14-.43-.29-.86-.44-1.3t-.01-.02s0-.01-.01-.02c-.23-.7-.47-1.4-.71-2.11-.11-.31-.21-.63-.33-.95-.09-.31-.2-.62-.31-.93-.01-.03-.02-.07-.04-.11l-.03-.12c-.11-.31-.21-.62-.32-.93-.1-.29-.2-.59-.3-.89-.04-.11-.07-.23-.11-.34-.43-1.26-.85-2.52-1.27-3.78-.18-.54-.36-1.07-.54-1.6-.17-.51-.34-1.02-.51-1.52-.06-.19-.13-.38-.19-.57-.16-.49-.32-.97-.48-1.45l-.21-.63c-.27-.81-.54-1.6-.8-2.38-.28-.85-.56-1.68-.83-2.5-.15-.45-.3-.89-.44-1.33-.13-.39-.26-.78-.38-1.16-.25-.75-.49-1.48-.73-2.18-.24-.71-.46-1.38-.67-2.02-.21-.65-.41-1.26-.61-1.83-.09-.29-.18-.56-.27-.83-.01-.01-.01-.02-.01-.03-.28-.82-.52-1.55-.72-2.18-.35-1.04-.67-2.06-.97-3.07-.59-1.95-1.1-3.84-1.55-5.67-.12-.48-.24-.96-.35-1.44-.07-.28-.14-.57-.2-.85-.1-.43-.2-.86-.29-1.28-.22-.95-.41-1.87-.6-2.78-.12-.57-.24-1.13-.35-1.69-.11-.56-.22-1.11-.33-1.65-.1-.54-.21-1.08-.31-1.61-.44-2.23-.85-4.33-1.29-6.29-.08-.36-.16-.72-.24-1.07-.02-.09-.04-.18-.07-.27-.11-.44-.22-.88-.33-1.3-1.68-6.43-4.08-11.17-9.63-14.04-1.67-.86-3.74-1.18-6.08-1.1V8C0,3.58,3.58,0,8,0h59.65c4.42,0,8,3.58,8,8Z"/>
</svg>